<svg width="312" height="264" viewBox="0 0 312 264" fill="none" xmlns="http://www.w3.org/2000/svg">
<path d="M136.884 191.621L306.435 186.227C309.48 186.13 312 188.572 312 191.618C312 194.663 309.48 197.105 306.435 197.008L136.884 191.621Z" fill="#0DCBED"/>
<path d="M137.534 196.655L299.906 146.814C302.832 145.916 305.918 147.633 306.697 150.593C307.467 153.517 305.68 156.502 302.738 157.204L137.534 196.655Z" fill="#0DCBED"/>
<path d="M139.445 201.343L283.605 110.454C286.197 108.82 289.628 109.681 291.141 112.346C292.624 114.957 291.679 118.276 289.043 119.714L139.445 201.343Z" fill="#0DCBED"/>
<path d="M142.482 205.375L258.632 79.5939C260.705 77.3484 264.235 77.294 266.377 79.4745C268.467 81.6025 268.413 85.0288 266.257 87.0895L142.482 205.375Z" fill="#0DCBED"/>
<path d="M146.44 208.465L226.661 56.3356C228.078 53.6487 231.451 52.6884 234.071 54.2262C236.638 55.733 237.472 59.0507 235.923 61.5926L146.44 208.465Z" fill="#0DCBED"/>
<path d="M151.055 210.409L189.846 42.2737C190.524 39.335 193.51 37.5493 196.42 38.342C199.295 39.1255 200.964 42.1211 200.117 44.9787L151.055 210.409Z" fill="#0DCBED"/>
<path d="M156.003 212L150.693 37.4707C150.602 34.4766 153.004 32 156 32C158.995 32 161.397 34.4765 161.306 37.4706L156.003 212Z" fill="#0DCBED"/>
<path d="M160.952 210.409L111.883 44.9789C111.036 42.1212 112.704 39.1255 115.58 38.342C118.49 37.5493 121.476 39.3348 122.154 42.2735L160.952 210.409Z" fill="#0DCBED"/>
<path d="M165.559 208.465L76.0765 61.5926C74.5279 59.0507 75.3623 55.733 77.9292 54.2262C80.5488 52.6884 83.9219 53.6487 85.3388 56.3356L165.559 208.465Z" fill="#0DCBED"/>
<path d="M169.517 205.375L45.7462 87.0926C43.5884 85.0304 43.5348 81.6015 45.6272 79.4729C47.7701 77.293 51.3007 77.3482 53.3744 79.594L169.517 205.375Z" fill="#0DCBED"/>
<path d="M172.561 201.343L22.9598 119.712C20.3257 118.275 19.3803 114.958 20.8609 112.348C22.3727 109.683 25.8044 108.821 28.3964 110.455L172.561 201.343Z" fill="#0DCBED"/>
<path d="M174.466 196.655L9.26131 157.204C6.32017 156.502 4.53302 153.517 5.30284 150.593C6.08204 147.633 9.16755 145.916 12.0935 146.814L174.466 196.655Z" fill="#0DCBED"/>
<path d="M175.122 191.621L5.56162 197.009C2.51901 197.105 0 194.665 0 191.621C0 188.577 2.51902 186.137 5.56163 186.233L175.122 191.621Z" fill="#0DCBED"/>
<g filter="url(#filter0_i_666_44962)">
<path d="M227.431 105.818L170.475 72.3874C161.653 67.2089 150.719 67.2089 141.896 72.3874L84.94 105.818C76.3047 110.887 71.0005 120.15 71.0005 130.163V197.837C71.0005 207.85 76.3047 217.113 84.94 222.182L141.896 255.613C150.719 260.791 161.653 260.791 170.475 255.613L227.431 222.182C236.067 217.113 241.371 207.85 241.371 197.837L241.371 130.163C241.371 120.15 236.067 110.887 227.431 105.818Z" fill="#3396EF"/>
</g>
<g filter="url(#filter1_i_666_44962)">
<path d="M213.31 113.84L170.551 88.5633C161.691 83.3254 150.681 83.3254 141.821 88.5633L99.0621 113.84C90.4695 118.919 85.1982 128.159 85.1982 138.141L85.1982 189.859C85.1982 199.841 90.4695 209.08 99.0621 214.16L141.821 239.436C150.681 244.674 161.691 244.674 170.551 239.436L213.31 214.16C221.902 209.08 227.174 199.841 227.174 189.859V138.141C227.174 128.159 221.902 118.919 213.31 113.84Z" fill="#3396EF"/>
</g>
<g filter="url(#filter2_d_666_44962)">
<path d="M114.504 132.959H93.9131C93.9131 132.959 93.9131 172.213 124.697 169.016" stroke="#FFE2A6" stroke-width="5" stroke-linejoin="round"/>
<path d="M114.504 132.959H93.9131C93.9131 132.959 93.9131 172.213 124.697 169.016" stroke="#F9A90F" stroke-width="2.83" stroke-linejoin="round"/>
<path d="M197.497 132.959H218.087C218.087 132.959 218.024 172.213 187.256 169.016" stroke="#FFE2A6" stroke-width="5" stroke-linejoin="round"/>
<path d="M197.497 132.959H218.087C218.087 132.959 218.024 172.213 187.256 169.016" stroke="#F9A90F" stroke-width="2.83" stroke-linejoin="round"/>
<path d="M183.822 222.01C183.806 218.862 182.689 215.822 180.669 213.432C178.649 211.043 175.858 209.46 172.794 208.965H172.637C167.469 208.022 159.293 197.072 166.177 189.294C208.776 173.78 200.6 114 200.6 114H111.322C111.322 114 103.145 173.804 145.744 189.294C152.629 197.048 144.452 208.006 139.285 208.917H139.135C136.072 209.412 133.281 210.995 131.261 213.384C129.241 215.774 128.123 218.814 128.108 221.962V223.952H183.83L183.822 222.01ZM163.397 169.456L157.694 166.258C157.167 165.964 156.574 165.809 155.973 165.809C155.371 165.809 154.779 165.964 154.251 166.258L148.556 169.456C147.929 169.785 147.223 169.928 146.519 169.866C145.815 169.805 145.143 169.542 144.58 169.109C144.018 168.675 143.588 168.089 143.341 167.417C143.094 166.746 143.039 166.017 143.184 165.315L144.271 158.577C144.372 157.955 144.329 157.317 144.144 156.715C143.959 156.113 143.639 155.563 143.208 155.108L138.592 150.312C138.102 149.798 137.758 149.159 137.594 148.463C137.431 147.767 137.455 147.039 137.663 146.355C137.872 145.672 138.257 145.058 138.779 144.577C139.302 144.096 139.941 143.766 140.632 143.622L147.005 142.695C147.608 142.595 148.178 142.346 148.665 141.97C149.151 141.593 149.539 141.101 149.793 140.537L152.637 134.414C152.923 133.764 153.388 133.212 153.976 132.824C154.565 132.437 155.251 132.231 155.953 132.231C156.654 132.231 157.341 132.437 157.93 132.824C158.518 133.212 158.983 133.764 159.269 134.414L162.121 140.537C162.375 141.099 162.763 141.589 163.25 141.963C163.736 142.337 164.306 142.583 164.909 142.679L171.282 143.662C171.971 143.806 172.611 144.135 173.133 144.615C173.654 145.095 174.04 145.708 174.249 146.39C174.458 147.072 174.483 147.799 174.322 148.494C174.16 149.19 173.817 149.829 173.33 150.344L168.722 155.14C168.288 155.593 167.967 156.143 167.783 156.746C167.6 157.349 167.56 157.987 167.666 158.609L168.753 165.315C169.273 168.512 166.106 170.966 163.397 169.456Z" fill="url(#paint0_radial_666_44962)"/>
<path d="M115.394 118.556H196.528C197.123 127.471 196.593 136.426 194.952 145.205C190.888 165.811 180.711 179.215 164.689 185.05L163.625 185.442L162.837 186.289C161.024 188.319 159.798 190.818 159.293 193.51C158.789 196.202 159.026 198.983 159.978 201.548C161.995 207.47 167.067 212.562 171.841 213.401H172.03C173.622 213.655 175.112 214.354 176.334 215.42C177.556 216.486 178.46 217.877 178.946 219.436H132.944C133.43 217.876 134.336 216.485 135.559 215.419C136.783 214.352 138.275 213.654 139.868 213.401H140.057C144.783 212.602 149.903 207.47 151.92 201.548C152.872 198.983 153.109 196.202 152.605 193.51C152.1 190.818 150.874 188.319 149.061 186.289L148.273 185.442L147.217 185.05C131.195 179.215 121.01 165.811 116.954 145.205C115.313 136.426 114.783 127.471 115.378 118.556H115.394ZM145.902 138.283L139.994 139.202C138.499 139.437 137.098 140.087 135.947 141.082C134.795 142.077 133.938 143.377 133.472 144.837C132.973 146.331 132.893 147.937 133.239 149.475C133.585 151.012 134.345 152.423 135.433 153.549L139.821 158.121L138.781 164.612C138.578 165.834 138.64 167.086 138.963 168.282C139.285 169.477 139.86 170.587 140.648 171.534C141.408 172.448 142.355 173.183 143.422 173.69C144.49 174.196 145.653 174.461 146.831 174.467C148.188 174.464 149.521 174.112 150.707 173.444L155.977 170.503L161.262 173.428C162.896 174.345 164.795 174.654 166.63 174.302C168.465 173.951 170.121 172.96 171.313 171.502C172.101 170.555 172.676 169.445 172.998 168.25C173.321 167.054 173.383 165.802 173.18 164.58L172.109 158.121L176.52 153.549C177.609 152.424 178.369 151.013 178.714 149.474C179.059 147.936 178.975 146.33 178.473 144.837C178.001 143.383 177.141 142.09 175.988 141.103C174.835 140.115 173.435 139.471 171.943 139.242L165.988 138.267L163.286 132.48C162.641 131.052 161.605 129.841 160.301 128.993C158.998 128.144 157.482 127.693 155.933 127.693C154.385 127.693 152.869 128.144 151.565 128.993C150.262 129.841 149.226 131.052 148.58 132.48L145.902 138.283ZM200.6 114.024H111.322C111.322 114.024 103.145 173.804 145.744 189.294C152.629 197.048 144.452 208.006 139.285 208.917H139.135C136.072 209.412 133.281 210.995 131.261 213.384C129.241 215.774 128.123 218.814 128.108 221.962V223.952H183.83V221.962C183.814 218.814 182.697 215.774 180.677 213.384C178.657 210.995 175.866 209.412 172.802 208.917H172.644C167.469 208.022 159.293 197.072 166.177 189.294C208.776 173.78 200.6 114 200.6 114V114.024ZM146.831 169.927C146.277 169.912 145.733 169.774 145.236 169.524C144.739 169.274 144.302 168.917 143.955 168.478C143.608 168.039 143.36 167.529 143.226 166.983C143.093 166.437 143.079 165.868 143.184 165.315L144.271 158.577C144.372 157.955 144.329 157.317 144.144 156.715C143.959 156.113 143.639 155.563 143.208 155.108L138.592 150.312C138.102 149.798 137.758 149.159 137.594 148.463C137.431 147.767 137.455 147.039 137.663 146.355C137.872 145.672 138.257 145.058 138.779 144.577C139.302 144.096 139.941 143.766 140.632 143.622L147.005 142.695C147.608 142.595 148.178 142.346 148.665 141.97C149.151 141.593 149.539 141.101 149.793 140.537L152.637 134.414C152.923 133.764 153.388 133.212 153.976 132.824C154.565 132.437 155.251 132.231 155.953 132.231C156.654 132.231 157.341 132.437 157.93 132.824C158.518 133.212 158.983 133.764 159.269 134.414L162.121 140.537C162.375 141.099 162.763 141.589 163.25 141.963C163.736 142.337 164.306 142.583 164.909 142.679L171.282 143.662C171.971 143.806 172.611 144.135 173.133 144.615C173.654 145.095 174.04 145.708 174.249 146.39C174.458 147.072 174.483 147.799 174.322 148.494C174.16 149.19 173.817 149.829 173.33 150.344L168.722 155.14C168.288 155.593 167.967 156.143 167.783 156.746C167.6 157.349 167.56 157.987 167.666 158.609L168.753 165.315C168.857 165.866 168.842 166.433 168.709 166.977C168.575 167.522 168.327 168.03 167.981 168.467C167.635 168.904 167.199 169.26 166.704 169.509C166.209 169.759 165.666 169.896 165.114 169.911C164.513 169.908 163.922 169.751 163.397 169.456L157.694 166.258C157.169 165.962 156.577 165.808 155.977 165.811C155.374 165.812 154.781 165.966 154.251 166.258L148.556 169.456C148.03 169.757 147.436 169.917 146.831 169.919V169.927Z" fill="url(#paint1_linear_666_44962)"/>
<path d="M115.394 118.556H196.528C197.123 127.471 196.593 136.426 194.952 145.205C190.888 165.811 180.711 179.215 164.689 185.05L163.625 185.442L162.837 186.289C161.024 188.319 159.798 190.818 159.293 193.51C158.789 196.202 159.026 198.983 159.978 201.548C161.995 207.47 167.067 212.562 171.841 213.401H172.03C173.622 213.655 175.112 214.354 176.334 215.42C177.556 216.486 178.46 217.877 178.946 219.436H132.944C133.43 217.876 134.336 216.485 135.559 215.419C136.783 214.352 138.275 213.654 139.868 213.401H140.057C144.783 212.602 149.903 207.47 151.92 201.548C152.872 198.983 153.109 196.202 152.605 193.51C152.1 190.818 150.874 188.319 149.061 186.289L148.273 185.442L147.217 185.05C131.195 179.215 121.01 165.811 116.954 145.205C115.313 136.426 114.783 127.471 115.378 118.556H115.394ZM145.902 138.283L139.994 139.202C138.499 139.437 137.098 140.087 135.947 141.082C134.795 142.077 133.938 143.377 133.472 144.837C132.973 146.331 132.893 147.937 133.239 149.475C133.585 151.012 134.345 152.423 135.433 153.549L139.821 158.121L138.781 164.612C138.578 165.834 138.64 167.086 138.963 168.282C139.285 169.477 139.86 170.587 140.648 171.534C141.408 172.448 142.355 173.183 143.422 173.69C144.49 174.196 145.653 174.461 146.831 174.467C148.188 174.464 149.521 174.112 150.707 173.444L155.977 170.503L161.262 173.428C162.896 174.345 164.795 174.654 166.63 174.302C168.465 173.951 170.121 172.96 171.313 171.502C172.101 170.555 172.676 169.445 172.998 168.25C173.321 167.054 173.383 165.802 173.18 164.58L172.109 158.121L176.52 153.549C177.609 152.424 178.369 151.013 178.714 149.474C179.059 147.936 178.975 146.33 178.473 144.837C178.001 143.383 177.141 142.09 175.988 141.103C174.835 140.115 173.435 139.471 171.943 139.242L165.988 138.267L163.286 132.48C162.641 131.052 161.605 129.841 160.301 128.993C158.998 128.144 157.482 127.693 155.933 127.693C154.385 127.693 152.869 128.144 151.565 128.993C150.262 129.841 149.226 131.052 148.58 132.48L145.902 138.283ZM200.6 114.024H111.322C111.322 114.024 103.145 173.804 145.744 189.294C152.629 197.048 144.452 208.006 139.285 208.917H139.135C136.072 209.412 133.281 210.995 131.261 213.384C129.241 215.774 128.123 218.814 128.108 221.962V223.952H183.83V221.962C183.814 218.814 182.697 215.774 180.677 213.384C178.657 210.995 175.866 209.412 172.802 208.917H172.644C167.469 208.022 159.293 197.072 166.177 189.294C208.776 173.78 200.6 114 200.6 114V114.024ZM146.831 169.927C146.277 169.912 145.733 169.774 145.236 169.524C144.739 169.274 144.302 168.917 143.955 168.478C143.608 168.039 143.36 167.529 143.226 166.983C143.093 166.437 143.079 165.868 143.184 165.315L144.271 158.577C144.372 157.955 144.329 157.317 144.144 156.715C143.959 156.113 143.639 155.563 143.208 155.108L138.592 150.312C138.102 149.798 137.758 149.159 137.594 148.463C137.431 147.767 137.455 147.039 137.663 146.355C137.872 145.672 138.257 145.058 138.779 144.577C139.302 144.096 139.941 143.766 140.632 143.622L147.005 142.695C147.608 142.595 148.178 142.346 148.665 141.97C149.151 141.593 149.539 141.101 149.793 140.537L152.637 134.414C152.923 133.764 153.388 133.212 153.976 132.824C154.565 132.437 155.251 132.231 155.953 132.231C156.654 132.231 157.341 132.437 157.93 132.824C158.518 133.212 158.983 133.764 159.269 134.414L162.121 140.537C162.375 141.099 162.763 141.589 163.25 141.963C163.736 142.337 164.306 142.583 164.909 142.679L171.282 143.662C171.971 143.806 172.611 144.135 173.133 144.615C173.654 145.095 174.04 145.708 174.249 146.39C174.458 147.072 174.483 147.799 174.322 148.494C174.16 149.19 173.817 149.829 173.33 150.344L168.722 155.14C168.288 155.593 167.967 156.143 167.783 156.746C167.6 157.349 167.56 157.987 167.666 158.609L168.753 165.315C168.857 165.866 168.842 166.433 168.709 166.977C168.575 167.522 168.327 168.03 167.981 168.467C167.635 168.904 167.199 169.26 166.704 169.509C166.209 169.759 165.666 169.896 165.114 169.911C164.513 169.908 163.922 169.751 163.397 169.456L157.694 166.258C157.169 165.962 156.577 165.808 155.977 165.811C155.374 165.812 154.781 165.966 154.251 166.258L148.556 169.456C148.03 169.757 147.436 169.917 146.831 169.919V169.927Z" fill="url(#paint2_linear_666_44962)"/>
<path d="M128.1 224V222.01C128.115 218.862 129.233 215.822 131.253 213.433C133.273 211.043 136.064 209.46 139.128 208.966H139.277C144.452 208.022 152.597 197.072 145.744 189.295C103.145 173.804 111.322 114.024 111.322 114.024H200.6C200.6 114.024 208.776 173.804 166.177 189.295C159.293 197.048 167.469 207.998 172.629 208.918H172.786C175.85 209.412 178.641 210.996 180.661 213.385C182.681 215.774 183.798 218.814 183.814 221.962V223.952H128.1V224ZM152.637 134.423L149.793 140.537C149.539 141.102 149.151 141.594 148.665 141.97C148.178 142.346 147.608 142.596 147.005 142.695L140.632 143.679C139.941 143.823 139.302 144.152 138.779 144.633C138.257 145.114 137.872 145.728 137.663 146.412C137.455 147.095 137.431 147.823 137.594 148.519C137.758 149.215 138.102 149.854 138.592 150.369L143.208 155.165C143.639 155.619 143.959 156.169 144.144 156.771C144.329 157.374 144.372 158.011 144.271 158.633L143.184 165.316C143.043 166.016 143.1 166.743 143.349 167.412C143.598 168.08 144.028 168.664 144.59 169.096C145.151 169.527 145.822 169.788 146.524 169.849C147.226 169.91 147.93 169.768 148.556 169.44L154.251 166.243C154.779 165.948 155.371 165.794 155.973 165.794C156.574 165.794 157.167 165.948 157.694 166.243L163.397 169.44C166.106 170.951 169.273 168.505 168.753 165.3L167.666 158.57C167.56 157.948 167.6 157.309 167.783 156.706C167.967 156.103 168.288 155.553 168.722 155.101L173.33 150.305C173.817 149.789 174.16 149.15 174.322 148.455C174.483 147.759 174.458 147.033 174.249 146.35C174.04 145.668 173.654 145.055 173.133 144.575C172.611 144.095 171.971 143.767 171.282 143.623L164.909 142.639C164.311 142.546 163.744 142.305 163.258 141.939C162.772 141.573 162.382 141.092 162.121 140.537L159.269 134.415C158.983 133.765 158.517 133.213 157.928 132.826C157.339 132.44 156.652 132.234 155.95 132.235C155.249 132.236 154.563 132.443 153.974 132.831C153.386 133.219 152.922 133.772 152.637 134.423V134.423Z" stroke="#FFE2A6" stroke-linejoin="round"/>
<path d="M122.373 122.153C123.074 127.149 123.751 132.033 124.547 136.868C125.343 141.704 126.28 146.46 127.485 151.144C128.645 155.81 130.175 160.373 132.062 164.788C133.036 166.994 134.128 169.144 135.331 171.23C136.601 173.331 137.984 175.359 139.474 177.305C137.314 175.975 135.336 174.362 133.59 172.509C131.856 170.649 130.307 168.62 128.966 166.451C126.349 162.045 124.392 157.269 123.161 152.279C121.932 147.348 121.238 142.296 121.089 137.212C120.877 132.157 121.309 127.096 122.373 122.153Z" fill="white"/>
</g>
<path d="M160.964 9.77562L165.281 18.814C166.096 20.5194 167.685 21.7032 169.512 21.9774L179.23 23.4472C183.844 24.1603 185.672 29.9855 182.331 33.3079L175.282 40.3091C173.949 41.6341 173.345 43.5338 173.64 45.4077L175.261 55.3299C176.027 60.0522 171.192 63.6287 167.061 61.3845L158.38 56.6774C156.743 55.783 154.773 55.7818 153.128 56.6548L144.421 61.3025C140.28 63.5146 135.456 59.9072 136.265 55.1974L137.964 45.2954C138.288 43.423 137.692 41.5193 136.361 40.1744L129.361 33.1335C126.025 29.7909 127.892 23.9752 132.525 23.3048L142.239 21.8936C144.07 21.6299 145.67 20.4509 146.486 18.7565L150.854 9.75761C152.931 5.45333 158.915 5.47417 160.964 9.77562Z" fill="url(#paint3_radial_666_44962)"/>
<path d="M169.706 56.622C169.669 56.6231 169.612 56.6055 169.555 56.5687L160.874 51.8616C159.313 51.0036 157.556 50.5544 155.774 50.5478C154.011 50.5406 152.241 50.9754 150.67 51.8271L141.964 56.494C141.908 56.4956 141.87 56.4967 141.814 56.4983C141.683 56.502 141.606 56.4466 141.548 56.3714C141.509 56.3149 141.489 56.2771 141.523 56.1417L143.222 46.2396C143.854 42.6105 142.683 38.8794 140.1 36.3027L133.1 29.2618C133.023 29.1872 132.964 29.112 133.015 28.9185C133.085 28.7244 133.178 28.7025 133.272 28.6998L142.986 27.2886C146.554 26.7639 149.643 24.4859 151.259 21.1744L155.627 12.1755C155.662 12.0785 155.716 12.0001 155.923 11.9942C156.129 11.9883 156.169 12.0832 156.209 12.1781L160.525 21.2165C162.116 24.5323 165.18 26.8455 168.758 27.377L178.476 28.8468C178.57 28.8633 178.665 28.8798 178.726 29.0701C178.788 29.2604 178.715 29.3393 178.641 29.399L171.593 36.4002C169 38.9714 167.807 42.6741 168.413 46.3254L170.034 56.2477C170.056 56.3815 170.038 56.4204 169.984 56.4988C169.893 56.5783 169.763 56.6204 169.706 56.622Z" fill="url(#paint4_linear_666_44962)"/>
<path d="M145.007 30.5675C147.107 28.6091 148.682 27.3995 150.051 26.0363C150.744 25.3643 151.419 24.6923 152.094 23.8859C152.844 23.0987 153.481 22.1579 154.513 21.0635C155.806 23.6747 154.925 27.0347 152.769 29.0123C151.719 30.0299 150.425 30.7019 149.076 31.0091C147.745 31.2587 146.32 31.2395 145.007 30.5675Z" fill="white"/>
<path d="M74.4518 54.5171L77.3294 60.5427C77.8731 61.6796 78.9324 62.4688 80.1503 62.6516L86.6288 63.6315C89.7052 64.1069 90.924 67.9903 88.6962 70.2053L83.9972 74.8727C83.1086 75.7561 82.7055 77.0225 82.9021 78.2718L83.9829 84.8866C84.4939 88.0348 81.2705 90.4192 78.5164 88.923L72.7292 85.7849C71.6376 85.1887 70.3247 85.1879 69.2278 85.7699L63.4232 88.8683C60.6626 90.3431 57.4461 87.9381 57.9856 84.7983L59.1183 78.1969C59.3344 76.9487 58.9371 75.6795 58.0499 74.783L53.383 70.089C51.1591 67.8606 52.4037 63.9835 55.4924 63.5365L61.9686 62.5957C63.1891 62.4199 64.2555 61.6339 64.7998 60.5043L67.712 54.5051C69.0966 51.6356 73.0856 51.6494 74.4518 54.5171Z" fill="url(#paint5_radial_666_44962)"/>
<path d="M80.28 85.7474C80.255 85.7481 80.2172 85.7364 80.179 85.7118L74.3917 82.5738C73.3508 82.0017 72.1798 81.7023 70.9919 81.6979C69.8164 81.6931 68.6365 81.983 67.5892 82.5508L61.7849 85.662C61.7474 85.6631 61.7224 85.6638 61.685 85.6649C61.5975 85.6674 61.5465 85.6304 61.5076 85.5803C61.4816 85.5426 61.4684 85.5174 61.4909 85.4271L62.6237 78.8258C63.0453 76.4064 62.2647 73.9189 60.5424 72.2011L55.8755 67.5072C55.8241 67.4575 55.7852 67.4073 55.8192 67.2783C55.8657 67.1489 55.9278 67.1344 55.9903 67.1326L62.4665 66.1917C64.8451 65.842 66.9043 64.3233 67.9819 62.1156L70.894 56.1163C70.9173 56.0517 70.9534 55.9994 71.0908 55.9955C71.2282 55.9915 71.255 56.0548 71.2817 56.1181L74.1594 62.1437C75.22 64.3542 77.2626 65.8964 79.648 66.2507L86.1265 67.2305C86.1893 67.2415 86.2522 67.2525 86.2931 67.3794C86.3341 67.5063 86.2855 67.5589 86.2366 67.5987L81.5376 72.2661C79.8089 73.9803 79.0135 76.4488 79.4175 78.883L80.4982 85.4978C80.5132 85.587 80.5014 85.613 80.4653 85.6652C80.4042 85.7182 80.3175 85.7463 80.28 85.7474Z" fill="url(#paint6_linear_666_44962)"/>
<path d="M63.814 68.378C65.2138 67.0724 66.2637 66.266 67.1761 65.3572C67.6386 64.9092 68.0885 64.4612 68.5385 63.9236C69.0384 63.3988 69.4634 62.7716 70.1508 62.042C71.0132 63.7828 70.4258 66.0228 68.9884 67.3412C68.2885 68.0196 67.4261 68.4676 66.5262 68.6724C65.6388 68.8388 64.6889 68.826 63.814 68.378Z" fill="white"/>
<path d="M244.166 54.5171L247.044 60.5427C247.587 61.6796 248.647 62.4688 249.865 62.6516L256.343 63.6315C259.42 64.1069 260.638 67.9903 258.411 70.2053L253.712 74.8727C252.823 75.7561 252.42 77.0225 252.617 78.2718L253.697 84.8866C254.208 88.0348 250.985 90.4192 248.231 88.923L242.444 85.7849C241.352 85.1887 240.039 85.1879 238.942 85.7699L233.138 88.8683C230.377 90.3431 227.16 87.9381 227.7 84.7983L228.833 78.1969C229.049 76.9487 228.651 75.6795 227.764 74.783L223.097 70.089C220.873 67.8606 222.118 63.9835 225.207 63.5365L231.683 62.5957C232.903 62.4199 233.97 61.6339 234.514 60.5043L237.426 54.5051C238.811 51.6356 242.8 51.6494 244.166 54.5171Z" fill="url(#paint7_radial_666_44962)"/>
<path d="M249.994 85.7474C249.969 85.7481 249.932 85.7364 249.893 85.7118L244.106 82.5738C243.065 82.0017 241.894 81.7023 240.706 81.6979C239.531 81.6931 238.351 81.983 237.304 82.5508L231.499 85.662C231.462 85.6631 231.437 85.6638 231.399 85.6649C231.312 85.6674 231.261 85.6304 231.222 85.5803C231.196 85.5426 231.183 85.5174 231.205 85.4271L232.338 78.8258C232.76 76.4064 231.979 73.9189 230.257 72.2011L225.59 67.5072C225.538 67.4575 225.5 67.4073 225.534 67.2783C225.58 67.1489 225.642 67.1344 225.705 67.1326L232.181 66.1917C234.559 65.842 236.619 64.3233 237.696 62.1156L240.608 56.1163C240.632 56.0517 240.668 55.9994 240.805 55.9955C240.943 55.9915 240.969 56.0548 240.996 56.1181L243.874 62.1437C244.934 64.3542 246.977 65.8964 249.362 66.2507L255.841 67.2305C255.904 67.2415 255.967 67.2525 256.007 67.3794C256.048 67.5063 256 67.5589 255.951 67.5987L251.252 72.2661C249.523 73.9803 248.728 76.4488 249.132 78.883L250.213 85.4978C250.228 85.587 250.216 85.613 250.18 85.6652C250.119 85.7182 250.032 85.7463 249.994 85.7474Z" fill="url(#paint8_linear_666_44962)"/>
<path d="M233.528 68.378C234.928 67.0724 235.978 66.266 236.89 65.3572C237.353 64.9092 237.803 64.4612 238.253 63.9236C238.753 63.3988 239.178 62.7716 239.865 62.042C240.728 63.7828 240.14 66.0228 238.703 67.3412C238.003 68.0196 237.14 68.4676 236.241 68.6724C235.353 68.8388 234.403 68.826 233.528 68.378Z" fill="white"/>
<defs>
<filter id="filter0_i_666_44962" x="71.0005" y="68.5039" width="170.371" height="202.284" filterUnits="userSpaceOnUse" color-interpolation-filters="sRGB">
<feFlood flood-opacity="0" result="BackgroundImageFix"/>
<feBlend mode="normal" in="SourceGraphic" in2="BackgroundImageFix" result="shape"/>
<feColorMatrix in="SourceAlpha" type="matrix" values="0 0 0 0 0 0 0 0 0 0 0 0 0 0 0 0 0 0 127 0" result="hardAlpha"/>
<feOffset dy="14.1146"/>
<feGaussianBlur stdDeviation="5.64583"/>
<feComposite in2="hardAlpha" operator="arithmetic" k2="-1" k3="1"/>
<feColorMatrix type="matrix" values="0 0 0 0 0 0 0 0 0 0 0 0 0 0 0 0 0 0 0.25 0"/>
<feBlend mode="normal" in2="shape" result="effect1_innerShadow_666_44962"/>
</filter>
<filter id="filter1_i_666_44962" x="85.1982" y="84.6348" width="141.975" height="170.022" filterUnits="userSpaceOnUse" color-interpolation-filters="sRGB">
<feFlood flood-opacity="0" result="BackgroundImageFix"/>
<feBlend mode="normal" in="SourceGraphic" in2="BackgroundImageFix" result="shape"/>
<feColorMatrix in="SourceAlpha" type="matrix" values="0 0 0 0 0 0 0 0 0 0 0 0 0 0 0 0 0 0 127 0" result="hardAlpha"/>
<feOffset dy="14.1146"/>
<feGaussianBlur stdDeviation="5.64583"/>
<feComposite in2="hardAlpha" operator="arithmetic" k2="-1" k3="1"/>
<feColorMatrix type="matrix" values="0 0 0 0 0 0 0 0 0 0 0 0 0 0 0 0 0 0 0.25 0"/>
<feBlend mode="normal" in2="shape" result="effect1_innerShadow_666_44962"/>
</filter>
<filter id="filter2_d_666_44962" x="84" y="109" width="144" height="122" filterUnits="userSpaceOnUse" color-interpolation-filters="sRGB">
<feFlood flood-opacity="0" result="BackgroundImageFix"/>
<feColorMatrix in="SourceAlpha" type="matrix" values="0 0 0 0 0 0 0 0 0 0 0 0 0 0 0 0 0 0 127 0" result="hardAlpha"/>
<feOffset dy="1"/>
<feGaussianBlur stdDeviation="2"/>
<feComposite in2="hardAlpha" operator="out"/>
<feColorMatrix type="matrix" values="0 0 0 0 0.096875 0 0 0 0 0.242805 0 0 0 0 0.375 0 0 0 0.64 0"/>
<feBlend mode="normal" in2="BackgroundImageFix" result="effect1_dropShadow_666_44962"/>
<feBlend mode="normal" in="SourceGraphic" in2="effect1_dropShadow_666_44962" result="shape"/>
</filter>
<radialGradient id="paint0_radial_666_44962" cx="0" cy="0" r="1" gradientUnits="userSpaceOnUse" gradientTransform="translate(120.924 122.317) rotate(20.2706) scale(91.0825 92.1038)">
<stop stop-color="#F3F400"/>
<stop offset="0.01" stop-color="#F3F101"/>
<stop offset="0.16" stop-color="#F6D207"/>
<stop offset="0.31" stop-color="#F8BB0B"/>
<stop offset="0.45" stop-color="#F9AE0E"/>
<stop offset="0.57" stop-color="#F9A90F"/>
<stop offset="0.78" stop-color="#DB7800"/>
<stop offset="0.84" stop-color="#E08002"/>
<stop offset="0.93" stop-color="#EC9409"/>
<stop offset="1" stop-color="#F9A90F"/>
</radialGradient>
<linearGradient id="paint1_linear_666_44962" x1="100.112" y1="145.285" x2="199.288" y2="180.865" gradientUnits="userSpaceOnUse">
<stop offset="0.01" stop-color="#CF6400"/>
<stop offset="0.13" stop-color="#D06600"/>
<stop offset="0.2" stop-color="#D56E02"/>
<stop offset="0.25" stop-color="#DD7C05"/>
<stop offset="0.3" stop-color="#E98E09"/>
<stop offset="0.33" stop-color="#F8A70F"/>
<stop offset="0.34" stop-color="#F9A90F"/>
<stop offset="0.58" stop-color="#F9AB0F"/>
<stop offset="0.71" stop-color="#F8B30D"/>
<stop offset="0.81" stop-color="#F7C10A"/>
<stop offset="0.9" stop-color="#F6D406"/>
<stop offset="0.98" stop-color="#F4EC02"/>
<stop offset="1" stop-color="#F3F400"/>
</linearGradient>
<linearGradient id="paint2_linear_666_44962" x1="100.112" y1="145.285" x2="199.288" y2="180.865" gradientUnits="userSpaceOnUse">
<stop stop-color="#ED9515"/>
<stop offset="0.35" stop-color="#ED9714"/>
<stop offset="0.53" stop-color="#EE9F13"/>
<stop offset="0.67" stop-color="#EEAD10"/>
<stop offset="0.8" stop-color="#F0C00C"/>
<stop offset="0.91" stop-color="#F1D806"/>
<stop offset="1" stop-color="#F3F400"/>
</linearGradient>
<radialGradient id="paint3_radial_666_44962" cx="0" cy="0" r="1" gradientUnits="userSpaceOnUse" gradientTransform="translate(159.307 13.0905) rotate(0.191797) scale(50.9778 52.2067)">
<stop stop-color="#F39200"/>
<stop offset="0.494792" stop-color="#F28D02"/>
<stop offset="0.7837" stop-color="#F07E09"/>
<stop offset="1" stop-color="#ED6614"/>
</radialGradient>
<linearGradient id="paint4_linear_666_44962" x1="155.76" y1="56.5627" x2="155.91" y2="11.9706" gradientUnits="userSpaceOnUse">
<stop stop-color="#ED9515"/>
<stop offset="1" stop-color="#F3F400"/>
</linearGradient>
<radialGradient id="paint5_radial_666_44962" cx="0" cy="0" r="1" gradientUnits="userSpaceOnUse" gradientTransform="translate(73.3468 56.727) rotate(0.191797) scale(33.9852 34.8045)">
<stop stop-color="#F39200"/>
<stop offset="0.494792" stop-color="#F28D02"/>
<stop offset="0.7837" stop-color="#F07E09"/>
<stop offset="1" stop-color="#ED6614"/>
</radialGradient>
<linearGradient id="paint6_linear_666_44962" x1="70.9827" y1="85.7078" x2="71.0822" y2="55.9798" gradientUnits="userSpaceOnUse">
<stop stop-color="#ED9515"/>
<stop offset="1" stop-color="#F3F400"/>
</linearGradient>
<radialGradient id="paint7_radial_666_44962" cx="0" cy="0" r="1" gradientUnits="userSpaceOnUse" gradientTransform="translate(243.061 56.727) rotate(0.191797) scale(33.9852 34.8045)">
<stop stop-color="#F39200"/>
<stop offset="0.494792" stop-color="#F28D02"/>
<stop offset="0.7837" stop-color="#F07E09"/>
<stop offset="1" stop-color="#ED6614"/>
</radialGradient>
<linearGradient id="paint8_linear_666_44962" x1="240.697" y1="85.7078" x2="240.797" y2="55.9798" gradientUnits="userSpaceOnUse">
<stop stop-color="#ED9515"/>
<stop offset="1" stop-color="#F3F400"/>
</linearGradient>
</defs>
</svg>
