<svg width="216" height="94" viewBox="0 0 216 94" fill="none" xmlns="http://www.w3.org/2000/svg">
<path d="M112.964 9.77562L117.281 18.814C118.096 20.5194 119.685 21.7032 121.512 21.9774L131.23 23.4472C135.844 24.1603 137.672 29.9855 134.331 33.3079L127.282 40.3091C125.949 41.6341 125.345 43.5338 125.64 45.4077L127.261 55.3299C128.027 60.0522 123.192 63.6287 119.061 61.3845L110.38 56.6774C108.743 55.783 106.773 55.7818 105.128 56.6548L96.4211 61.3025C92.2803 63.5146 87.4555 59.9072 88.2648 55.1974L89.9639 45.2954C90.2879 43.423 89.6921 41.5193 88.3613 40.1744L81.361 33.1335C78.0251 29.7909 79.892 23.9752 84.525 23.3048L94.2392 21.8936C96.0701 21.6299 97.6696 20.4509 98.4861 18.7565L102.854 9.75761C104.931 5.45333 110.915 5.47417 112.964 9.77562Z" fill="url(#paint0_radial_666_44965)"/>
<path d="M121.706 56.622C121.669 56.6231 121.612 56.6055 121.555 56.5687L112.874 51.8616C111.313 51.0036 109.556 50.5544 107.774 50.5478C106.011 50.5406 104.241 50.9754 102.67 51.8271L93.9637 56.494C93.9075 56.4956 93.87 56.4967 93.8138 56.4983C93.6826 56.502 93.6061 56.4466 93.5478 56.3714C93.5087 56.3149 93.4889 56.2771 93.5228 56.1417L95.2219 46.2396C95.8543 42.6105 94.6834 38.8794 92.0999 36.3027L85.0996 29.2618C85.0226 29.1872 84.9642 29.112 85.0152 28.9185C85.085 28.7244 85.1781 28.7025 85.2718 28.6998L94.9861 27.2886C98.5541 26.7639 101.643 24.4859 103.259 21.1744L107.627 12.1755C107.662 12.0785 107.716 12.0001 107.923 11.9942C108.129 11.9883 108.169 12.0832 108.209 12.1781L112.525 21.2165C114.116 24.5323 117.18 26.8455 120.758 27.377L130.476 28.8468C130.57 28.8633 130.665 28.8798 130.726 29.0701C130.788 29.2604 130.715 29.3393 130.641 29.399L123.593 36.4002C121 38.9714 119.807 42.6741 120.413 46.3254L122.034 56.2477C122.056 56.3815 122.038 56.4204 121.984 56.4988C121.893 56.5783 121.763 56.6204 121.706 56.622Z" fill="url(#paint1_linear_666_44965)"/>
<path d="M97.0073 30.5675C99.1071 28.6091 100.682 27.3995 102.051 26.0363C102.744 25.3643 103.419 24.6923 104.094 23.8859C104.844 23.0987 105.481 22.1579 106.513 21.0635C107.806 23.6747 106.925 27.0347 104.769 29.0123C103.719 30.0299 102.425 30.7019 101.076 31.0091C99.7445 31.2587 98.3197 31.2395 97.0073 30.5675Z" fill="white"/>
<path d="M26.4518 54.5171L29.3294 60.5427C29.8731 61.6796 30.9324 62.4688 32.1503 62.6516L38.6288 63.6315C41.7052 64.1069 42.924 67.9903 40.6962 70.2053L35.9972 74.8727C35.1086 75.7561 34.7055 77.0225 34.9021 78.2718L35.9829 84.8866C36.4939 88.0348 33.2705 90.4192 30.5164 88.923L24.7292 85.7849C23.6376 85.1887 22.3247 85.1879 21.2278 85.7699L15.4232 88.8683C12.6626 90.3431 9.4461 87.9381 9.9856 84.7983L11.1183 78.1969C11.3344 76.9487 10.9371 75.6795 10.0499 74.783L5.38305 70.089C3.15913 67.8606 4.40372 63.9835 7.49241 63.5365L13.9686 62.5957C15.1891 62.4199 16.2555 61.6339 16.7998 60.5043L19.712 54.5051C21.0966 51.6356 25.0856 51.6494 26.4518 54.5171Z" fill="url(#paint2_radial_666_44965)"/>
<path d="M32.28 85.7474C32.255 85.7481 32.2172 85.7364 32.179 85.7118L26.3917 82.5738C25.3508 82.0017 24.1798 81.7023 22.9919 81.6979C21.8164 81.6931 20.6365 81.983 19.5892 82.5508L13.7849 85.662C13.7474 85.6631 13.7224 85.6638 13.685 85.6649C13.5975 85.6674 13.5465 85.6304 13.5076 85.5803C13.4816 85.5426 13.4684 85.5174 13.4909 85.4271L14.6237 78.8258C15.0453 76.4064 14.2647 73.9189 12.5424 72.2011L7.8755 67.5072C7.82413 67.4575 7.78525 67.4073 7.81924 67.2783C7.86572 67.1489 7.92784 67.1344 7.99031 67.1326L14.4665 66.1917C16.8451 65.842 18.9043 64.3233 19.9819 62.1156L22.894 56.1163C22.9173 56.0517 22.9534 55.9994 23.0908 55.9955C23.2282 55.9915 23.255 56.0548 23.2817 56.1181L26.1594 62.1437C27.22 64.3542 29.2626 65.8964 31.648 66.2507L38.1265 67.2305C38.1893 67.2415 38.2522 67.2525 38.2931 67.3794C38.3341 67.5063 38.2855 67.5589 38.2366 67.5987L33.5376 72.2661C31.8089 73.9803 31.0135 76.4488 31.4175 78.883L32.4982 85.4978C32.5132 85.587 32.5014 85.613 32.4653 85.6652C32.4042 85.7182 32.3175 85.7463 32.28 85.7474Z" fill="url(#paint3_linear_666_44965)"/>
<path d="M15.814 68.378C17.2138 67.0724 18.2637 66.266 19.1761 65.3572C19.6386 64.9092 20.0885 64.4612 20.5385 63.9236C21.0384 63.3988 21.4634 62.7716 22.1508 62.042C23.0132 63.7828 22.4258 66.0228 20.9884 67.3412C20.2885 68.0196 19.4261 68.4676 18.5262 68.6724C17.6388 68.8388 16.6889 68.826 15.814 68.378Z" fill="white"/>
<path d="M196.166 54.5171L199.044 60.5427C199.587 61.6796 200.647 62.4688 201.865 62.6516L208.343 63.6315C211.42 64.1069 212.638 67.9903 210.411 70.2053L205.712 74.8727C204.823 75.7561 204.42 77.0225 204.617 78.2718L205.697 84.8866C206.208 88.0348 202.985 90.4192 200.231 88.923L194.444 85.7849C193.352 85.1887 192.039 85.1879 190.942 85.7699L185.138 88.8683C182.377 90.3431 179.16 87.9381 179.7 84.7983L180.833 78.1969C181.049 76.9487 180.651 75.6795 179.764 74.783L175.097 70.089C172.873 67.8606 174.118 63.9835 177.207 63.5365L183.683 62.5957C184.903 62.4199 185.97 61.6339 186.514 60.5043L189.426 54.5051C190.811 51.6356 194.8 51.6494 196.166 54.5171Z" fill="url(#paint4_radial_666_44965)"/>
<path d="M201.994 85.7474C201.969 85.7481 201.932 85.7364 201.893 85.7118L196.106 82.5738C195.065 82.0017 193.894 81.7023 192.706 81.6979C191.531 81.6931 190.351 81.983 189.304 82.5508L183.499 85.662C183.462 85.6631 183.437 85.6638 183.399 85.6649C183.312 85.6674 183.261 85.6304 183.222 85.5803C183.196 85.5426 183.183 85.5174 183.205 85.4271L184.338 78.8258C184.76 76.4064 183.979 73.9189 182.257 72.2011L177.59 67.5072C177.538 67.4575 177.5 67.4073 177.534 67.2783C177.58 67.1489 177.642 67.1344 177.705 67.1326L184.181 66.1917C186.559 65.842 188.619 64.3233 189.696 62.1156L192.608 56.1163C192.632 56.0517 192.668 55.9994 192.805 55.9955C192.943 55.9915 192.969 56.0548 192.996 56.1181L195.874 62.1437C196.934 64.3542 198.977 65.8964 201.362 66.2507L207.841 67.2305C207.904 67.2415 207.967 67.2525 208.007 67.3794C208.048 67.5063 208 67.5589 207.951 67.5987L203.252 72.2661C201.523 73.9803 200.728 76.4488 201.132 78.883L202.213 85.4978C202.228 85.587 202.216 85.613 202.18 85.6652C202.119 85.7182 202.032 85.7463 201.994 85.7474Z" fill="url(#paint5_linear_666_44965)"/>
<path d="M185.528 68.378C186.928 67.0724 187.978 66.266 188.89 65.3572C189.353 64.9092 189.803 64.4612 190.253 63.9236C190.753 63.3988 191.178 62.7716 191.865 62.042C192.728 63.7828 192.14 66.0228 190.703 67.3412C190.003 68.0196 189.14 68.4676 188.241 68.6724C187.353 68.8388 186.403 68.826 185.528 68.378Z" fill="white"/>
<defs>
<radialGradient id="paint0_radial_666_44965" cx="0" cy="0" r="1" gradientUnits="userSpaceOnUse" gradientTransform="translate(111.307 13.0905) rotate(0.191797) scale(50.9778 52.2067)">
<stop stop-color="#F39200"/>
<stop offset="0.494792" stop-color="#F28D02"/>
<stop offset="0.7837" stop-color="#F07E09"/>
<stop offset="1" stop-color="#ED6614"/>
</radialGradient>
<linearGradient id="paint1_linear_666_44965" x1="107.76" y1="56.5627" x2="107.91" y2="11.9706" gradientUnits="userSpaceOnUse">
<stop stop-color="#ED9515"/>
<stop offset="1" stop-color="#F3F400"/>
</linearGradient>
<radialGradient id="paint2_radial_666_44965" cx="0" cy="0" r="1" gradientUnits="userSpaceOnUse" gradientTransform="translate(25.3468 56.727) rotate(0.191797) scale(33.9852 34.8045)">
<stop stop-color="#F39200"/>
<stop offset="0.494792" stop-color="#F28D02"/>
<stop offset="0.7837" stop-color="#F07E09"/>
<stop offset="1" stop-color="#ED6614"/>
</radialGradient>
<linearGradient id="paint3_linear_666_44965" x1="22.9827" y1="85.7078" x2="23.0822" y2="55.9798" gradientUnits="userSpaceOnUse">
<stop stop-color="#ED9515"/>
<stop offset="1" stop-color="#F3F400"/>
</linearGradient>
<radialGradient id="paint4_radial_666_44965" cx="0" cy="0" r="1" gradientUnits="userSpaceOnUse" gradientTransform="translate(195.061 56.727) rotate(0.191797) scale(33.9852 34.8045)">
<stop stop-color="#F39200"/>
<stop offset="0.494792" stop-color="#F28D02"/>
<stop offset="0.7837" stop-color="#F07E09"/>
<stop offset="1" stop-color="#ED6614"/>
</radialGradient>
<linearGradient id="paint5_linear_666_44965" x1="192.697" y1="85.7078" x2="192.797" y2="55.9798" gradientUnits="userSpaceOnUse">
<stop stop-color="#ED9515"/>
<stop offset="1" stop-color="#F3F400"/>
</linearGradient>
</defs>
</svg>
